<?xml version="1.0" encoding="utf-8"?>
<!-- Generator: Adobe Illustrator 17.0.0, SVG Export Plug-In . SVG Version: 6.00 Build 0)  -->
<!DOCTYPE svg PUBLIC "-//W3C//DTD SVG 1.1//EN" "http://www.w3.org/Graphics/SVG/1.1/DTD/svg11.dtd">
<svg version="1.1" id="Layer_1" xmlns="http://www.w3.org/2000/svg" xmlns:xlink="http://www.w3.org/1999/xlink" x="0px" y="0px"
	 width="312.667px" height="99.333px" viewBox="0 0 312.667 99.333" enable-background="new 0 0 312.667 99.333"
	 xml:space="preserve">
<g>
	<path fill="#1A154C" d="M170.6,74.065h-31.325l-5.135,11.297h-12.239l26.874-59.91h12.324l26.875,59.91h-12.325L170.6,74.065z
		 M154.937,38.033l-11.126,25.505h22.253L154.937,38.033z"/>
	<path fill="#1A154C" d="M201.586,25.537v34.577l14.207-16.946h12.495v0.6l-17.202,19.257l19.599,21.567v0.771h-12.581
		l-16.518-19.086v19.086h-10.442V25.537H201.586z"/>
	<path fill="#1A154C" d="M268.945,43.168h10.014v42.194h-9.843l-0.514-6.162c-2.396,4.964-8.986,7.36-13.693,7.446
		c-12.496,0.085-21.739-7.617-21.739-22.424c0-14.55,9.671-22.167,21.996-22.081c5.648,0,11.04,2.653,13.437,6.847L268.945,43.168z
		 M243.611,64.222c0,8.045,5.563,12.838,12.496,12.838c16.433,0,16.433-25.59,0-25.59C249.174,51.47,243.611,56.177,243.611,64.222z
		"/>
	<path fill="#1A154C" d="M298.132,25.537v59.825h-10.356V25.537H298.132z"/>
	<g>
		<polygon fill="#717070" points="71.458,37.251 55.573,9.54 7.045,85.097 22.985,85.097 55.655,32.614 64.962,47.319 		"/>
		<polygon fill="#11B4B7" points="78.765,48.563 100.364,85.222 37.097,85.222 44.151,74.571 81.367,74.387 71.863,58.714 		"/>
	</g>
</g>
</svg>
